<svg width="62" height="64" viewBox="0 0 62 64" fill="none" xmlns="http://www.w3.org/2000/svg">
<g clip-path="url(#clip0_728_144)">
<path d="M42.5592 4C43.5853 4 44.5694 4.42143 45.295 5.17157C46.0206 5.92172 46.4282 6.93913 46.4282 8V56C46.4282 57.0609 46.0206 58.0783 45.295 58.8284C44.5694 59.5786 43.5853 60 42.5592 60H19.3451C18.319 60 17.3349 59.5786 16.6093 58.8284C15.8837 58.0783 15.4761 57.0609 15.4761 56V8C15.4761 6.93913 15.8837 5.92172 16.6093 5.17157C17.3349 4.42143 18.319 4 19.3451 4H42.5592ZM19.3451 0C17.2928 0 15.3246 0.842855 13.8735 2.34315C12.4223 3.84344 11.6071 5.87827 11.6071 8V56C11.6071 58.1217 12.4223 60.1566 13.8735 61.6569C15.3246 63.1571 17.2928 64 19.3451 64H42.5592C44.6115 64 46.5796 63.1571 48.0308 61.6569C49.482 60.1566 50.2972 58.1217 50.2972 56V8C50.2972 5.87827 49.482 3.84344 48.0308 2.34315C46.5796 0.842855 44.6115 0 42.5592 0L19.3451 0Z" fill="#F9FCFB"/>
<path d="M30.9521 56C31.9783 56 32.9624 55.5786 33.688 54.8284C34.4135 54.0783 34.8212 53.0609 34.8212 52C34.8212 50.9391 34.4135 49.9217 33.688 49.1716C32.9624 48.4214 31.9783 48 30.9521 48C29.926 48 28.9419 48.4214 28.2163 49.1716C27.4908 49.9217 27.0831 50.9391 27.0831 52C27.0831 53.0609 27.4908 54.0783 28.2163 54.8284C28.9419 55.5786 29.926 56 30.9521 56Z" fill="#F9FCFB"/>
</g>
<defs>
<clipPath id="clip0_728_144">
<rect width="61.9043" height="64" fill="white"/>
</clipPath>
</defs>
</svg>
