<svg width="64" height="64" viewBox="0 0 64 64" fill="none" xmlns="http://www.w3.org/2000/svg">
<path d="M58 23.175L40.825 5.99999C40.0719 5.25798 39.0572 4.84204 38 4.84204C36.9428 4.84204 35.928 5.25798 35.175 5.99999L28.9 12.275L14.375 17.725C13.721 17.9705 13.1433 18.384 12.7001 18.9238C12.2568 19.4637 11.9636 20.1108 11.85 20.8L6.02499 55.675C5.97326 55.962 5.98576 56.2569 6.06157 56.5386C6.13738 56.8202 6.27463 57.0816 6.46345 57.3039C6.65228 57.5261 6.88799 57.7039 7.15366 57.8242C7.41933 57.9446 7.70836 58.0046 7.99999 58H8.32499L43.2 52.2C43.8892 52.077 44.5348 51.7774 45.0738 51.3305C45.6127 50.8836 46.0266 50.3046 46.275 49.65L51.725 35.125L58 28.825C58.742 28.0719 59.1579 27.0572 59.1579 26C59.1579 24.9428 58.742 23.928 58 23.175ZM42.525 48.225L13.825 53L25.675 41.15C26.692 41.714 27.8371 42.0067 29 42C30.3845 42 31.7378 41.5894 32.889 40.8203C34.0401 40.0511 34.9373 38.9578 35.4671 37.6788C35.997 36.3997 36.1356 34.9922 35.8655 33.6343C35.5954 32.2765 34.9287 31.0292 33.9497 30.0502C32.9708 29.0713 31.7235 28.4046 30.3656 28.1345C29.0078 27.8644 27.6003 28.003 26.3212 28.5328C25.0421 29.0626 23.9489 29.9598 23.1797 31.111C22.4105 32.2621 22 33.6155 22 35C21.9933 36.1629 22.286 37.308 22.85 38.325L11 50.175L15.775 21.475L29.5 16.325L47.675 34.5L42.525 48.225ZM26 35C26 34.4066 26.1759 33.8266 26.5056 33.3333C26.8352 32.8399 27.3038 32.4554 27.8519 32.2283C28.4001 32.0013 29.0033 31.9419 29.5853 32.0576C30.1672 32.1734 30.7018 32.4591 31.1213 32.8787C31.5409 33.2982 31.8266 33.8328 31.9423 34.4147C32.0581 34.9967 31.9987 35.5998 31.7716 36.148C31.5446 36.6962 31.16 37.1647 30.6667 37.4944C30.1734 37.824 29.5933 38 29 38C28.2043 38 27.4413 37.6839 26.8787 37.1213C26.3161 36.5587 26 35.7956 26 35ZM50 31.175L32.825 14L38 8.82499L55.175 26L50 31.175Z" fill="#F9FCFB"/>
</svg>
