<svg width="1440" height="1221" viewBox="0 0 1440 1221" fill="none" xmlns="http://www.w3.org/2000/svg">
<g opacity="0.5">
<path opacity="0.3" fill-rule="evenodd" clip-rule="evenodd" d="M1340.51 611.261C1398.21 726.356 1458.32 863.272 1408.29 981.909C1359.05 1098.64 1203.19 1114.32 1098.34 1185.45C1011.73 1244.2 947.162 1328.41 848.027 1361.96C726.45 1403.11 587.449 1456.8 474.014 1396.77C360.032 1336.44 315.016 1193.57 290.587 1066.95C269.497 957.628 319.447 853.773 348.519 746.296C375.97 644.816 368.769 517.395 455.367 457.778C541.671 398.363 658.671 479.136 761.98 461.654C879.204 441.818 976.468 320.36 1091.57 350.125C1210.93 380.991 1285.26 501.057 1340.51 611.261Z" stroke="#86E3CE" stroke-width="92"/>
<path fill-rule="evenodd" clip-rule="evenodd" d="M1149.28 717.304C1184.65 787.86 1221.5 871.792 1190.83 944.519C1160.64 1016.08 1065.1 1025.69 1000.82 1069.29C947.729 1105.31 908.147 1156.93 847.375 1177.5C772.846 1202.73 687.635 1235.64 618.097 1198.84C548.223 1161.86 520.628 1074.27 505.652 996.649C492.723 929.634 523.344 865.969 541.166 800.083C557.994 737.874 553.58 659.762 606.666 623.216C659.572 586.793 731.295 636.308 794.626 625.592C866.487 613.432 926.112 538.975 996.67 557.222C1069.84 576.143 1115.41 649.747 1149.28 717.304Z" stroke="#F9FCFB" stroke-opacity="0.4" stroke-width="83"/>
</g>
</svg>
