<svg width="209" height="233" viewBox="0 0 209 233" fill="none" xmlns="http://www.w3.org/2000/svg">
<path fill-rule="evenodd" clip-rule="evenodd" d="M90.1812 62.5597C102.278 57.0411 110.859 40.2085 123.908 42.8145C136.969 45.4227 141.112 62.3967 147.641 74.0348C152.538 82.7631 153.749 92.4587 157.06 101.904C160.841 112.693 169.401 122.115 168.483 133.503C167.476 145.994 163.311 161.298 151.867 166.33C139.884 171.6 127.39 159.207 114.433 157.273C105.446 155.931 96.1163 160.29 87.737 156.758C79.0551 153.099 71.9332 146.026 67.7203 137.583C63.6259 129.378 66.5038 119.804 64.8004 110.794C62.4009 98.1029 49.6818 85.3507 55.687 73.938C61.4485 62.9887 78.9382 67.6889 90.1812 62.5597Z" fill="url(#paint0_linear_1034_2)"/>
<path opacity="0.4" fill-rule="evenodd" clip-rule="evenodd" d="M82.7691 50.7716C97.6199 43.9955 108.149 23.3148 124.174 26.523C140.212 29.7338 145.307 50.5937 153.329 64.8979C159.346 75.6257 160.838 87.5405 164.906 99.1488C169.554 112.408 180.069 123.99 178.947 137.984C177.717 153.332 172.609 172.136 158.559 178.316C143.847 184.786 128.5 169.551 112.59 167.169C101.553 165.516 90.1 170.869 79.8095 166.525C69.1474 162.024 60.3993 153.329 55.2225 142.953C50.1914 132.868 53.721 121.105 51.6254 110.033C48.6734 94.4359 33.05 78.7601 40.4188 64.7384C47.4885 51.2861 68.9662 57.0695 82.7691 50.7716Z" stroke="white" stroke-width="0.5"/>
<path opacity="0.4" fill-rule="evenodd" clip-rule="evenodd" d="M72.605 38.9589C90.8159 30.6497 103.728 5.28986 123.378 9.22385C143.045 13.1611 149.292 38.7408 159.13 56.2814C166.508 69.4365 168.337 84.0471 173.326 98.2818C179.025 114.541 191.92 128.744 190.544 145.904C189.035 164.725 182.772 187.783 165.543 195.361C147.502 203.295 128.683 184.613 109.173 181.692C95.6394 179.666 81.5945 186.229 68.9757 180.902C55.9012 175.383 45.1738 164.721 38.8258 151.997C32.6563 139.631 36.9845 125.205 34.4148 111.628C30.7948 92.5026 11.6365 73.2801 20.6726 56.0859C29.3418 39.5898 55.679 46.6818 72.605 38.9589Z" stroke="white" stroke-width="0.5"/>
<defs>
<linearGradient id="paint0_linear_1034_2" x1="60.0438" y1="99.1501" x2="189.376" y2="119.134" gradientUnits="userSpaceOnUse">
<stop stop-color="#86E3CE"/>
<stop offset="1" stop-color="#7ACAB8" stop-opacity="0"/>
</linearGradient>
</defs>
</svg>
